<?xml version="1.0" encoding="UTF-8" standalone="no"?><svg xmlns="http://www.w3.org/2000/svg" xmlns:xlink="http://www.w3.org/1999/xlink" contentScriptType="application/ecmascript" contentStyleType="text/css" height="359px" preserveAspectRatio="none" style="width:650px;height:359px;" version="1.1" viewBox="0 0 650 359" width="650px" zoomAndPan="magnify"><defs><filter height="300%" id="f1sa80g0eny717" width="300%" x="-1" y="-1"><feGaussianBlur result="blurOut" stdDeviation="2.0"/><feColorMatrix in="blurOut" result="blurOut2" type="matrix" values="0 0 0 0 0 0 0 0 0 0 0 0 0 0 0 0 0 0 .4 0"/><feOffset dx="4.0" dy="4.0" in="blurOut2" result="blurOut3"/><feBlend in="SourceGraphic" in2="blurOut3" mode="normal"/></filter></defs><g><line style="stroke: #A80036; stroke-width: 1.0;" x1="35" x2="35" y1="38.2969" y2="164.8281"/><line style="stroke: #A80036; stroke-width: 1.0; stroke-dasharray: 1.0,4.0;" x1="35" x2="35" y1="164.8281" y2="192.8281"/><line style="stroke: #A80036; stroke-width: 1.0;" x1="35" x2="35" y1="192.8281" y2="319.3594"/><line style="stroke: #A80036; stroke-width: 1.0;" x1="153" x2="153" y1="38.2969" y2="164.8281"/><line style="stroke: #A80036; stroke-width: 1.0; stroke-dasharray: 1.0,4.0;" x1="153" x2="153" y1="164.8281" y2="192.8281"/><line style="stroke: #A80036; stroke-width: 1.0;" x1="153" x2="153" y1="192.8281" y2="319.3594"/><line style="stroke: #A80036; stroke-width: 1.0;" x1="245" x2="245" y1="38.2969" y2="164.8281"/><line style="stroke: #A80036; stroke-width: 1.0; stroke-dasharray: 1.0,4.0;" x1="245" x2="245" y1="164.8281" y2="192.8281"/><line style="stroke: #A80036; stroke-width: 1.0;" x1="245" x2="245" y1="192.8281" y2="319.3594"/><line style="stroke: #A80036; stroke-width: 1.0;" x1="343.5" x2="343.5" y1="38.2969" y2="164.8281"/><line style="stroke: #A80036; stroke-width: 1.0; stroke-dasharray: 1.0,4.0;" x1="343.5" x2="343.5" y1="164.8281" y2="192.8281"/><line style="stroke: #A80036; stroke-width: 1.0;" x1="343.5" x2="343.5" y1="192.8281" y2="319.3594"/><line style="stroke: #A80036; stroke-width: 1.0;" x1="479.5" x2="479.5" y1="38.2969" y2="164.8281"/><line style="stroke: #A80036; stroke-width: 1.0; stroke-dasharray: 1.0,4.0;" x1="479.5" x2="479.5" y1="164.8281" y2="192.8281"/><line style="stroke: #A80036; stroke-width: 1.0;" x1="479.5" x2="479.5" y1="192.8281" y2="319.3594"/><line style="stroke: #A80036; stroke-width: 1.0;" x1="609" x2="609" y1="38.2969" y2="164.8281"/><line style="stroke: #A80036; stroke-width: 1.0; stroke-dasharray: 1.0,4.0;" x1="609" x2="609" y1="164.8281" y2="192.8281"/><line style="stroke: #A80036; stroke-width: 1.0;" x1="609" x2="609" y1="192.8281" y2="319.3594"/><rect fill="#FEFECE" filter="url(#f1sa80g0eny717)" height="30.2969" style="stroke: #A80036; stroke-width: 1.5;" width="51" x="8" y="3"/><text fill="#000000" font-family="sans-serif" font-size="14" lengthAdjust="spacingAndGlyphs" textLength="37" x="15" y="22.9951">Code</text><rect fill="#FEFECE" filter="url(#f1sa80g0eny717)" height="30.2969" style="stroke: #A80036; stroke-width: 1.5;" width="51" x="8" y="318.3594"/><text fill="#000000" font-family="sans-serif" font-size="14" lengthAdjust="spacingAndGlyphs" textLength="37" x="15" y="338.3545">Code</text><rect fill="#FEFECE" filter="url(#f1sa80g0eny717)" height="30.2969" style="stroke: #A80036; stroke-width: 1.5;" width="59" x="122" y="3"/><text fill="#000000" font-family="sans-serif" font-size="14" lengthAdjust="spacingAndGlyphs" textLength="45" x="129" y="22.9951">Maven</text><rect fill="#FEFECE" filter="url(#f1sa80g0eny717)" height="30.2969" style="stroke: #A80036; stroke-width: 1.5;" width="59" x="122" y="318.3594"/><text fill="#000000" font-family="sans-serif" font-size="14" lengthAdjust="spacingAndGlyphs" textLength="45" x="129" y="338.3545">Maven</text><rect fill="#FEFECE" filter="url(#f1sa80g0eny717)" height="30.2969" style="stroke: #A80036; stroke-width: 1.5;" width="97" x="195" y="3"/><text fill="#000000" font-family="sans-serif" font-size="14" lengthAdjust="spacingAndGlyphs" textLength="83" x="202" y="22.9951">Downloader</text><rect fill="#FEFECE" filter="url(#f1sa80g0eny717)" height="30.2969" style="stroke: #A80036; stroke-width: 1.5;" width="97" x="195" y="318.3594"/><text fill="#000000" font-family="sans-serif" font-size="14" lengthAdjust="spacingAndGlyphs" textLength="83" x="202" y="338.3545">Downloader</text><rect fill="#FEFECE" filter="url(#f1sa80g0eny717)" height="30.2969" style="stroke: #A80036; stroke-width: 1.5;" width="32" x="325.5" y="3"/><text fill="#000000" font-family="sans-serif" font-size="14" lengthAdjust="spacingAndGlyphs" textLength="18" x="332.5" y="22.9951">p1</text><rect fill="#FEFECE" filter="url(#f1sa80g0eny717)" height="30.2969" style="stroke: #A80036; stroke-width: 1.5;" width="32" x="325.5" y="318.3594"/><text fill="#000000" font-family="sans-serif" font-size="14" lengthAdjust="spacingAndGlyphs" textLength="18" x="332.5" y="338.3545">p1</text><rect fill="#FEFECE" filter="url(#f1sa80g0eny717)" height="30.2969" style="stroke: #A80036; stroke-width: 1.5;" width="32" x="461.5" y="3"/><text fill="#000000" font-family="sans-serif" font-size="14" lengthAdjust="spacingAndGlyphs" textLength="18" x="468.5" y="22.9951">p2</text><rect fill="#FEFECE" filter="url(#f1sa80g0eny717)" height="30.2969" style="stroke: #A80036; stroke-width: 1.5;" width="32" x="461.5" y="318.3594"/><text fill="#000000" font-family="sans-serif" font-size="14" lengthAdjust="spacingAndGlyphs" textLength="18" x="468.5" y="338.3545">p2</text><rect fill="#FEFECE" filter="url(#f1sa80g0eny717)" height="30.2969" style="stroke: #A80036; stroke-width: 1.5;" width="63" x="576" y="3"/><text fill="#000000" font-family="sans-serif" font-size="14" lengthAdjust="spacingAndGlyphs" textLength="49" x="583" y="22.9951">SysOut</text><rect fill="#FEFECE" filter="url(#f1sa80g0eny717)" height="30.2969" style="stroke: #A80036; stroke-width: 1.5;" width="63" x="576" y="318.3594"/><text fill="#000000" font-family="sans-serif" font-size="14" lengthAdjust="spacingAndGlyphs" textLength="49" x="583" y="338.3545">SysOut</text><polygon fill="#A80036" points="141.5,65.4297,151.5,69.4297,141.5,73.4297,145.5,69.4297" style="stroke: #A80036; stroke-width: 1.0;"/><line style="stroke: #A80036; stroke-width: 1.0;" x1="35.5" x2="147.5" y1="69.4297" y2="69.4297"/><text fill="#000000" font-family="sans-serif" font-size="13" lengthAdjust="spacingAndGlyphs" textLength="94" x="42.5" y="64.3638">get(gav) -&gt; p1</text><polygon fill="#A80036" points="233.5,94.5625,243.5,98.5625,233.5,102.5625,237.5,98.5625" style="stroke: #A80036; stroke-width: 1.0;"/><line style="stroke: #A80036; stroke-width: 1.0;" x1="153.5" x2="239.5" y1="98.5625" y2="98.5625"/><text fill="#000000" font-family="sans-serif" font-size="13" lengthAdjust="spacingAndGlyphs" textLength="46" x="160.5" y="93.4966">start ...</text><polygon fill="#A80036" points="331.5,123.6953,341.5,127.6953,331.5,131.6953,335.5,127.6953" style="stroke: #A80036; stroke-width: 1.0;"/><line style="stroke: #A80036; stroke-width: 1.0;" x1="35.5" x2="337.5" y1="127.6953" y2="127.6953"/><text fill="#000000" font-family="sans-serif" font-size="13" lengthAdjust="spacingAndGlyphs" textLength="154" x="42.5" y="122.6294">map( this::parse ) -&gt; p2</text><polygon fill="#A80036" points="467.5,152.8281,477.5,156.8281,467.5,160.8281,471.5,156.8281" style="stroke: #A80036; stroke-width: 1.0;"/><line style="stroke: #A80036; stroke-width: 1.0;" x1="35.5" x2="473.5" y1="156.8281" y2="156.8281"/><text fill="#000000" font-family="sans-serif" font-size="13" lengthAdjust="spacingAndGlyphs" textLength="253" x="42.5" y="151.7622">thenAccept( System.out::println ) -&gt; p3</text><polygon fill="#A80036" points="331.5,209.9609,341.5,213.9609,331.5,217.9609,335.5,213.9609" style="stroke: #A80036; stroke-width: 1.0;"/><line style="stroke: #A80036; stroke-width: 1.0;" x1="245.5" x2="337.5" y1="213.9609" y2="213.9609"/><text fill="#000000" font-family="sans-serif" font-size="13" lengthAdjust="spacingAndGlyphs" textLength="74" x="252.5" y="208.895">resolve(file)</text><polygon fill="#A80036" points="46.5,239.0938,36.5,243.0938,46.5,247.0938,42.5,243.0938" style="stroke: #A80036; stroke-width: 1.0;"/><line style="stroke: #A80036; stroke-width: 1.0;" x1="40.5" x2="342.5" y1="243.0938" y2="243.0938"/><text fill="#000000" font-family="sans-serif" font-size="13" lengthAdjust="spacingAndGlyphs" textLength="144" x="52.5" y="238.0278">parse(file) -&gt; resource</text><polygon fill="#A80036" points="467.5,268.2266,477.5,272.2266,467.5,276.2266,471.5,272.2266" style="stroke: #A80036; stroke-width: 1.0;"/><line style="stroke: #A80036; stroke-width: 1.0;" x1="343.5" x2="473.5" y1="272.2266" y2="272.2266"/><text fill="#000000" font-family="sans-serif" font-size="13" lengthAdjust="spacingAndGlyphs" textLength="112" x="350.5" y="267.1606">resolve(resource)</text><polygon fill="#A80036" points="597.5,297.3594,607.5,301.3594,597.5,305.3594,601.5,301.3594" style="stroke: #A80036; stroke-width: 1.0;"/><line style="stroke: #A80036; stroke-width: 1.0;" x1="479.5" x2="603.5" y1="301.3594" y2="301.3594"/><text fill="#000000" font-family="sans-serif" font-size="13" lengthAdjust="spacingAndGlyphs" textLength="106" x="486.5" y="296.2935">println(resource)</text><!--MD5=[94bfa1b725d593a9e5852641d1821c14]
@startuml
Code -> Maven : get(gav) -> p1
Maven -> Downloader : start ...
Code -> p1 : map( this::parse ) -> p2
Code -> p2 : thenAccept( System.out::println ) -> p3
...
Downloader->p1 : resolve(file)
p1->Code : parse(file) -> resource
p1->p2 : resolve(resource)
p2->SysOut : println(resource)
@enduml

PlantUML version 1.2019.13(Tue Dec 10 17:18:29 UTC 2019)
(GPL source distribution)
Java Runtime: Java(TM) SE Runtime Environment
JVM: Java HotSpot(TM) 64-Bit Server VM
Java Version: 1.7.0_25-b15
Operating System: Linux
Default Encoding: UTF-8
Language: en
Country: US
--></g></svg>