<svg id="Ebene_1" data-name="Ebene 1" xmlns="http://www.w3.org/2000/svg" xmlns:xlink="http://www.w3.org/1999/xlink" viewBox="0 0 1280.79 385.63"><defs><style>.cls-1{fill:none;}.cls-2{clip-path:url(#clip-path);}.cls-3{fill:#117abf;}</style><clipPath id="clip-path" transform="translate(-44.84 -185.31)"><rect class="cls-1" x="44.83" y="185.31" width="1280.79" height="385.63"/></clipPath></defs><g class="cls-2"><path d="M1234,493.8a18,18,0,1,1-14.14-21.23A18,18,0,0,1,1234,493.8" transform="translate(-44.84 -185.31)"/><path class="cls-3" d="M1220.87,463.71s-19.57-55.84,16.68-83.18c0,0,26.53,37.64-16.68,83.18" transform="translate(-44.84 -185.31)"/><path class="cls-3" d="M1242.44,494.27s55.84-19.56,83.19,16.68c0,0-37.64,26.53-83.19-16.68" transform="translate(-44.84 -185.31)"/><path class="cls-3" d="M1237.87,474.63s25.65-53.31,70.62-47c0,0-7.85,45.39-70.62,47" transform="translate(-44.84 -185.31)"/><path class="cls-3" d="M100.88,288.86q0-18.57,34.51-18.2,35.24.38,47.12,26.81L214,267.74q-27.47-34.19-77.57-34.18-37.12,0-59,14.48-24.12,16-24.12,46.4,0,30.81,30.06,44.56,11.11,4.81,56,14.1,30.06,6,30.06,18.2,0,8.16-10,14.84-11.13,7.07-26.34,7.06-38.22,0-54.17-23.38L44.84,396.17q30,34.13,90.86,34.13,34.88,0,57.87-16,25.59-17.82,25.59-49.75,0-30.43-30.78-43.81Q178,316,131.66,307.42q-30.78-5.94-30.78-18.56M335,442.61,396.57,238H349.82L314.57,374.66h-.74L273.38,238H224.76L292.3,430.76q-4.46,9.28-9.46,12.62t-15.78,3.35a102,102,0,0,1-17.8-1.58v40.53a153.83,153.83,0,0,0,27.08,2.6q24.87,0,37.85-10T335,442.61M583.5,317.43l-.16-19.88q0-63.86-65-63.85-32.5,0-51.55,23.09V238.14H421.58V426H466.8V326.93q0-24.49,11.89-37.48,10.77-11.88,28.23-11.88,31.2,0,31.2,33.77v54.41s9.14-32.28,45.38-48.32M1180,282.89c-219.54-219.55-451.47,0-451.47,0,265.94-154.62,451.47,0,451.47,0" transform="translate(-44.84 -185.31)"/><path d="M516.15,456.4S330.62,611,64.68,456.4c0,0,231.92,219.55,451.47,0m66.33-65.78A47.43,47.43,0,0,1,599.16,364q13-10.63,31.89-10.63,20,0,32.64,14.91,10,11.56,10,22.39Zm0,34.79H721.25q0-109.2-90.19-109.2-44.53,0-70.33,27.65t-25.79,70.72q0,43.07,25.23,70.16Q586.51,513,631,513c41.56,0,67.49-8.6,87.53-39.28L683.91,446.1c-12.61,17.82-29.34,25.3-52.83,25.3q-19.3,0-33-12.61-15.21-13.35-15.58-33.38m203.8-53.9q0-18.57,34.5-18.19,35.26.36,47.13,26.8l31.53-29.73Q872,316.21,821.87,316.21q-37.11,0-59,14.48-24.12,16-24.12,46.4,0,30.81,30.06,44.56,11.13,4.82,56,14.11,30.06,5.94,30.06,18.19,0,8.16-10,14.84-11.14,7.06-26.35,7.06c-25.47,0-51.58-11.85-62.21-27.43L723.6,473.16c20,22.76,57,39.79,97.51,39.79Q856,513,879,497q25.6-17.82,25.6-49.75,0-30.44-30.78-43.81-10.38-4.81-56.72-13.36-30.78-5.94-30.78-18.56m202.8,139.32q14.48,0,36-4.47V469.18L1005,471.4q-12.25,0-16.71-5.94-3.74-4.81-3.72-17.08V353.32h40.51V320.65H984.58V254.36H939.35v66.29H911.91v32.67h27.44V465.51q0,45.32,49.73,45.32m222.15-190.18h-46.76l-35.25,136.66h-.73L1088,320.65h-48.61L1107,513.41q-4.46,9.29-9.46,12.63t-15.77,3.34a102.07,102.07,0,0,1-17.81-1.57v40.52a153.07,153.07,0,0,0,27.09,2.6q24.87,0,37.85-10t20.79-35.65Z" transform="translate(-44.84 -185.31)"/></g></svg>